<?xml version="1.0" encoding="UTF-8"?>
<!DOCTYPE svg PUBLIC "-//W3C//DTD SVG 1.1//EN" "http://www.w3.org/Graphics/SVG/1.1/DTD/svg11.dtd">
<!-- Creator: CorelDRAW (Evaluation Version) -->
<svg xmlns="http://www.w3.org/2000/svg" xml:space="preserve" width="81px" height="144px" version="1.1" style="shape-rendering:geometricPrecision; text-rendering:geometricPrecision; image-rendering:optimizeQuality; fill-rule:evenodd; clip-rule:evenodd"
viewBox="0 0 81 142.905"
 xmlns:xlink="http://www.w3.org/1999/xlink"
 xmlns:xodm="http://www.corel.com/coreldraw/odm/2003">
 <defs>
  <style type="text/css">
   <![CDATA[
    .fil0 {fill:#FEFEFE}
    .fil1 {fill:black}
   ]]>
  </style>
 </defs>
 <g id="Layer_x0020_1">
  <metadata id="CorelCorpID_0Corel-Layer"/>
  <g id="_3032557832368">
   <path class="fil0" d="M22.393 0.015c0.471,0.191 6.937,1.747 7.712,6.26 1.607,-0.297 4.401,-0.867 5.619,-1.464 0,-0.723 -0.959,-1.212 -1.552,-1.839 -0.731,-1.535 0.122,-2.957 1.449,-2.957 2.902,0.2 3.096,4.231 3.488,4.602 3.618,-0.301 6.62,-0.03 8.606,0.833 1.231,-0.959 4.765,-5.435 7.262,-5.435 1.255,0 1.925,1.322 1.46,2.178 0,0.724 -3.525,2.571 -5.52,4.259l0 0c15.525,5.356 21.154,18.789 21.479,27.571l0 5.135c3.566,2.553 8.603,17.22 8.603,22.214 0,0.977 -0.531,3.07 -1.979,3.07 -0.724,0 -1.194,-0.869 -1.918,-0.872l-1.075 0c-0.235,0.25 0,-0.724 0,0 0,1.491 5.144,12.302 3.839,16.756 -0.936,-0.041 -3.342,-2.982 -3.872,-1.211 -1.662,5.559 -0.365,22.092 -4.59,29.324 -1.25,-0.282 -2.807,-1.147 -3.531,-1.147 -0.724,0 -1.376,0.561 -1.833,0.805 -0.484,4.135 -3.885,18.884 -7.576,18.884 -0.724,0 -3.474,-2.027 -4.198,-2.027 -1.158,0 -11.003,17.951 -13.898,17.951 -3.293,0 -11.979,-17.662 -13.752,-17.662 -0.724,0 -3.62,1.738 -4.343,1.738 -3.258,0 -6.949,-19.689 -9.121,-19.689 -0.723,0 -2.461,0.869 -3.184,0.869 -2.136,0 -5.537,-12.228 -5.647,-15.484 -0.289,-8.397 0.29,-9.271 0.29,-9.995 0,-1.882 -1.56,-0.958 -3.714,-2.351 -0.925,-1.964 1.773,-11.172 4.295,-16.587 -0.249,-0.213 -0.146,-0.46 -0.871,-0.46 -0.663,0 -4.321,2.161 -4.321,0.826l0 -4.192c-0.021,-0.724 0.256,-3.785 0.907,-6.065 1.496,-6.678 5.345,-12.73 7.468,-14.419l0 -5.863c0.996,-15.122 13.752,-24.043 18.53,-25.877 0,-2.461 -6.08,-3.872 -6.08,-5.501 0,-0.76 1.097,-2.368 1.568,-2.178z"/>
   <path class="fil1" d="M26.803 21.863c1.519,0 3.039,1.526 3.039,2.684 0,1.628 -1.923,3.414 -3.081,3.414 -2.1,0 -2.462,-1.592 -2.462,-2.75 0,-1.158 0.766,-3.348 2.504,-3.348zm27.517 -0.067c1.773,0 2.672,1.919 2.473,3.228 0,1.737 -2.383,2.937 -2.961,2.937 -1.738,0 -2.607,-1.592 -2.607,-2.75 0,-1.738 1.791,-3.415 3.095,-3.415zm-17.177 95.345c0.954,0.293 2.501,2.312 3.225,2.312 0.724,0 2.171,-2.316 2.895,-2.316 0.725,0 4.777,4.632 4.777,5.356 0,3.148 -5.5,10.86 -7.416,13.157 -1.16,-1.129 -7.756,-11.317 -7.756,-13.597 0,-0.724 2.757,-3.127 4.275,-4.912zm17.383 -17.953l0 0c1.543,1.452 6.543,4.703 6.543,6.657 0,4.56 -1.965,10.044 -3.854,14.465 -1.524,-0.616 -8.436,-6.639 -9.166,-8.683 1.394,-1.991 4.562,-7.827 6.477,-12.439zm-28.318 0l0 0c2.168,4.716 6.777,11.687 6.777,12.882 0,1.918 -7.941,7.603 -9.15,8.538 -2.235,-4.348 -4.168,-10.022 -4.168,-14.329 0,-2.714 3.625,-4.264 6.541,-7.091zm8.612 -14.471l0 0c1.864,1.174 4.824,3.466 5.548,3.466 0.724,0 3.684,-2.292 5.557,-3.462 0.665,3.036 3.563,6.069 3.563,7.661 0,4.343 -6.056,15.743 -9.116,18.385 -3.361,-4.267 -8.127,-13.484 -8.658,-18.75 0,-0.724 2.146,-4.603 3.106,-7.3zm21.445 -11.297l0 0c14.12,10.558 15.517,1.445 15.517,14.763 0,4.271 -1.776,9.367 -2.666,13.581 -6.036,-2.055 -16.099,-14.28 -17.891,-21.687 0,-0.724 3.497,-4.275 5.04,-6.657zm-32.111 -0.003l0 0c0.724,0 5.357,6.081 5.357,6.804 0,5.828 -11.256,20.082 -17.283,21.559 -0.901,-1.471 -3.274,-11.063 -3.274,-13.597 0,-0.723 0.581,-5.086 0.973,-7.689 3.788,-1.493 13.902,-7.077 14.227,-7.077zm28.193 -6.321l0 0c-0.417,0.928 -8.866,13.271 -11.979,13.271 -2.534,0 -11.275,-11.696 -11.694,-12.686 7.714,1.977 8.22,11.817 11.549,11.817 3.692,0 -0.201,-7.227 12.124,-12.402zm-19.632 -6.056l0 0 14.727 0 -7.364 12.957 -7.363 -12.957zm31.105 -1.809l0 0c5.682,0 10.096,12.006 10.239,15.032l0 0c-5.876,-0.773 -13.748,-6.398 -17.622,-9.102 2.384,-1.566 6.659,-5.93 7.383,-5.93zm-47.483 0l0 0c0.724,0 5.003,4.367 7.673,6.218 -2.334,1.965 -12.45,8.837 -16.105,8.804l-1.244 0c0.453,-1.745 4.138,-15.022 9.676,-15.022zm16.821 -5.789l0 0c2.853,2.458 4.93,2.893 7.065,2.893 2.534,0 3.567,-0.44 6.78,-2.893l12.905 4.455c-3.226,3.176 -6.45,4.758 -9.804,6.208 0.853,-1.62 2.279,-4.15 2.279,-4.874 0,-0.724 -0.337,-1.665 -0.869,-2.213l-22.407 -0.066c-0.532,0.547 -1.333,1.555 -1.333,2.279 0,0.724 1.129,2.701 1.987,4.313 -3.343,-1.002 -5.811,-2.671 -9.038,-5.81l12.435 -4.292zm6.93 -2.318l0 0 4.478 1.584c-1.238,0.716 -3.763,1.601 -4.488,1.601 -0.724,0 -2.969,-0.6 -4.487,-1.604 1.538,-0.702 3.012,-1.289 4.497,-1.581zm-13.327 -17.082l0 0c6.224,0 12.775,5.79 13.317,5.79 2.063,0 2.631,-2.616 4.55,-3.954 3.22,-2.281 6.2,-1.836 8.914,-1.836 13.608,0 20.481,9.31 23.416,25.031l0 1.006 -36.88 -12.719 -36.884 12.713c0.489,-10.55 9.39,-28.033 23.567,-26.031zm13.191 -25.177l0 0c3.584,-0.446 4.084,-0.475 5.467,0.066 -0.569,2.133 -1.722,5.423 -1.722,6.146 0,1.267 1.521,1.593 1.883,1.593 2.678,0 2.618,-4.945 3.395,-6.647l0 0c9.518,-0.012 21.349,16.684 19.578,25.166l0 0c-3.849,-3.137 -11.139,-4.912 -15.011,-4.912 -3.801,0 -10.171,1.291 -13.459,4.923 -4.196,-4.132 -9.089,-4.923 -13.612,-4.923 -4.053,0 -11.48,1.769 -14.819,4.913 -0.454,-7.728 6.116,-20.211 16.602,-24.304 0.874,1.366 0.352,5.784 3.138,5.784 1.158,0 1.883,-0.724 1.883,-1.882 0,-0.724 -0.861,-3.429 -1.43,-5.282 1.25,-0.36 2.704,-0.65 4.243,-0.928 0.429,0.789 -0.352,4.907 2.109,4.907 3.293,0 1.737,-3.221 1.755,-3.583l0 -1.037zm-17.559 -8.849c0.471,0.19 6.937,1.746 7.711,6.259 1.608,-0.297 4.402,-0.868 5.619,-1.464 0,-0.723 -0.959,-1.212 -1.551,-1.839 -0.731,-1.535 0.123,-2.956 1.449,-2.956 2.902,0.199 3.096,4.23 3.488,4.6 3.618,-0.299 6.621,-0.029 8.606,0.834 1.231,-0.96 4.765,-5.435 7.262,-5.435 1.255,0 1.925,1.322 1.46,2.178 0,0.724 -3.525,2.571 -5.52,4.259l0 0c15.524,5.356 21.154,18.789 21.479,27.572l0 5.134c3.566,2.553 8.603,17.22 8.603,22.214 0,0.977 -0.532,3.07 -1.979,3.07 -0.724,0 -1.195,-0.869 -1.918,-0.873l-1.075 0c-0.234,0.252 0,-0.723 0,0 0,1.492 5.144,12.304 3.839,16.757 -3.892,-0.356 -2.971,0.9 -3.14,5.303 -0.212,5.497 -1.037,15.473 -5.322,22.81 -1.25,-0.282 -2.807,-1.147 -3.531,-1.147 -0.723,0 -1.376,0.56 -1.833,0.805 -0.483,4.135 -3.885,18.884 -7.576,18.884 -0.725,0 -3.475,-2.027 -4.198,-2.027 -1.158,0 -11.003,17.951 -13.898,17.951 -3.293,0 -11.979,-17.662 -13.753,-17.662 -0.723,0 -3.619,1.738 -4.342,1.738 -3.258,0 -6.949,-19.689 -9.12,-19.689 -0.724,0 -2.462,0.869 -3.185,0.869 -2.136,0 -5.538,-12.228 -5.647,-15.484 -0.289,-8.398 0.29,-9.271 0.29,-9.994 0,-1.882 -1.559,-0.959 -3.714,-2.352 -0.925,-1.964 1.773,-11.172 4.296,-16.587 -0.25,-0.213 -0.147,-0.46 -0.872,-0.46 -0.663,0 -4.321,2.162 -4.321,0.826l0 -4.192c-0.021,-0.724 0.256,-3.786 0.908,-6.065 1.495,-6.678 5.343,-12.73 7.467,-14.419l0 -5.863c0.996,-15.123 13.752,-24.043 18.53,-25.877 0,-2.46 -6.08,-3.872 -6.08,-5.501 0,-0.759 1.097,-2.368 1.568,-2.177z"/>
  </g>
 </g>
</svg>
